<svg width="18" height="18" viewBox="0 0 18 18" fill="none" xmlns="http://www.w3.org/2000/svg">
<g clip-path="url(#clip0)">
<path fill-rule="evenodd" clip-rule="evenodd" d="M9.00045 3.48C10.6904 3.48 11.8304 4.21 12.4804 4.82L15.0204 2.34C13.4604 0.89 11.4304 0 9.00045 0C5.48045 0 2.44045 2.02 0.960449 4.96L3.87045 7.22C4.60045 5.05 6.62045 3.48 9.00045 3.48V3.48Z" fill="#EA4335"/>
<path fill-rule="evenodd" clip-rule="evenodd" d="M17.64 9.20035C17.64 8.46035 17.58 7.92035 17.45 7.36035H9V10.7004H13.96C13.86 11.5304 13.32 12.7804 12.12 13.6204L14.96 15.8204C16.66 14.2504 17.64 11.9404 17.64 9.20035V9.20035Z" fill="#4285F4"/>
<path fill-rule="evenodd" clip-rule="evenodd" d="M3.88 10.78C3.69 10.22 3.58 9.61996 3.58 8.99996C3.58 8.37996 3.69 7.77996 3.87 7.21996L0.96 4.95996C0.35 6.17996 0 7.54996 0 8.99996C0 10.45 0.35 11.82 0.96 13.04L3.88 10.78V10.78Z" fill="#FBBC05"/>
<path fill-rule="evenodd" clip-rule="evenodd" d="M8.99973 18.0003C11.4297 18.0003 13.4697 17.2003 14.9597 15.8203L12.1197 13.6203C11.3597 14.1503 10.3397 14.5203 8.99973 14.5203C6.61973 14.5203 4.59973 12.9503 3.87973 10.7803L0.969727 13.0403C2.44973 15.9803 5.47973 18.0003 8.99973 18.0003V18.0003Z" fill="#34A853"/>
</g>
<defs>
<clipPath id="clip0">
<rect width="18" height="18" fill="white"/>
</clipPath>
</defs>
</svg>
