<?xml version="1.0" standalone="no"?>
<!DOCTYPE svg PUBLIC "-//W3C//DTD SVG 20010904//EN"
 "http://www.w3.org/TR/2001/REC-SVG-20010904/DTD/svg10.dtd">
<svg version="1.0" xmlns="http://www.w3.org/2000/svg"
 width="500.000000pt" height="500.000000pt" viewBox="0 0 500.000000 500.000000"
 preserveAspectRatio="xMidYMid meet">
<metadata>
Created by potrace 1.16, written by Peter Selinger 2001-2019
</metadata>
<g transform="translate(0.000000,500.000000) scale(0.100000,-0.100000)"
fill="#000000" stroke="none">
<path d="M3439 4107 c-75 -38 -122 -95 -145 -174 l-16 -55 -21 20 c-12 11 -32
25 -44 31 -34 17 -114 13 -153 -8 -43 -22 -80 -84 -80 -133 0 -36 -2 -37 -97
-88 -54 -29 -106 -59 -115 -68 -24 -20 -33 -74 -17 -103 35 -66 89 -66 214 1
l93 50 7 -27 c3 -15 66 -160 138 -322 l132 -296 -33 -30 c-31 -28 -41 -54
-118 -310 -46 -154 -87 -295 -90 -312 -11 -56 4 -101 48 -145 l41 -41 -34 -63
c-56 -105 -57 -106 -104 -89 -49 17 -567 21 -627 5 -25 -7 -52 -27 -80 -60
l-43 -50 -82 0 -81 0 21 53 c21 49 22 69 22 307 0 286 -6 321 -72 406 l-34 46
41 44 c23 25 48 61 56 79 19 45 18 146 -1 193 -21 50 -79 108 -140 140 l-50
27 -646 3 c-643 3 -647 2 -705 -19 -104 -39 -184 -145 -184 -244 0 -45 24
-119 48 -150 l21 -27 -77 -58 c-176 -134 -262 -258 -351 -513 -46 -134 -51
-190 -22 -267 43 -112 122 -187 240 -227 l66 -22 7 -65 c28 -240 220 -456 463
-521 79 -21 241 -21 320 0 146 39 280 135 363 260 57 84 102 209 102 281 l0
44 48 0 c46 0 49 -2 60 -34 16 -44 70 -92 119 -105 52 -15 1284 -15 1335 0 21
5 50 20 64 33 15 12 133 216 263 452 216 392 238 429 264 432 15 2 27 1 27 -1
0 -2 -22 -41 -49 -86 -27 -46 -72 -140 -99 -209 -55 -138 -133 -392 -125 -406
6 -9 127 -3 154 8 13 6 18 -9 31 -90 43 -260 240 -464 496 -515 93 -18 241 -7
331 24 261 91 434 350 418 627 -6 111 -44 227 -101 312 l-45 66 56 27 c41 21
59 36 69 62 24 56 5 103 -74 181 -80 79 -167 133 -277 169 -73 25 -94 27 -235
28 -85 0 -169 -3 -186 -7 l-31 -7 -6 58 c-2 31 -14 75 -25 97 -43 83 -102 114
-220 114 -76 0 -79 1 -92 28 -17 36 -267 595 -291 650 l-18 42 69 -6 c50 -5
74 -3 85 6 13 11 15 53 15 284 0 198 -3 275 -12 284 -7 7 -39 12 -74 12 -51 0
-74 -6 -125 -33z m948 -2212 c59 -17 114 -71 133 -130 40 -121 -60 -255 -190
-255 -132 1 -227 128 -190 253 21 71 106 138 186 146 6 1 33 -6 61 -14z
m-3202 -312 c-22 -90 -128 -162 -217 -147 -55 9 -124 57 -148 103 -37 74 -43
71 176 71 l196 0 -7 -27z"/>
</g>
</svg>
