<?xml version="1.0" standalone="no"?>
<!DOCTYPE svg PUBLIC "-//W3C//DTD SVG 20010904//EN"
 "http://www.w3.org/TR/2001/REC-SVG-20010904/DTD/svg10.dtd">
<svg version="1.0" xmlns="http://www.w3.org/2000/svg"
 width="500.000000pt" height="500.000000pt" viewBox="0 0 500.000000 500.000000"
 preserveAspectRatio="xMidYMid meet">
<metadata>
Created by potrace 1.16, written by Peter Selinger 2001-2019
</metadata>
<g transform="translate(0.000000,500.000000) scale(0.100000,-0.100000)"
fill="#000000" stroke="none">
<path d="M2430 4826 c-25 -24 -565 -504 -1200 -1066 -635 -563 -1172 -1038
-1192 -1056 -21 -19 -38 -40 -38 -46 1 -12 244 -290 259 -296 4 -1 507 441
1119 983 611 542 1114 985 1116 985 3 0 506 -443 1117 -985 612 -542 1115
-984 1119 -983 11 5 260 290 260 298 0 5 -510 460 -1132 1012 -623 551 -1181
1047 -1239 1101 -59 53 -115 97 -126 97 -10 0 -38 -20 -63 -44z"/>
<path d="M740 4079 c0 -330 3 -470 11 -467 6 2 147 127 315 278 l304 275 0
192 0 193 -315 0 -315 0 0 -471z"/>
<path d="M2309 3858 c-101 -90 -483 -428 -849 -751 -366 -324 -677 -602 -692
-618 l-28 -29 0 -1130 0 -1129 22 -26 c13 -14 41 -30 63 -35 22 -5 284 -10
583 -10 l542 0 0 499 c0 307 4 510 10 526 20 53 38 55 533 55 307 0 464 -4
486 -11 62 -22 61 -17 61 -568 l0 -500 564 2 c556 2 565 2 593 23 15 11 34 32
40 45 10 19 13 275 13 1142 l0 1117 -32 34 c-18 19 -289 260 -603 537 -313
277 -687 607 -830 734 -144 126 -268 236 -277 243 -13 11 -41 -10 -199 -150z"/>
</g>
</svg>
