<?xml version="1.0" standalone="no"?>
<!DOCTYPE svg PUBLIC "-//W3C//DTD SVG 20010904//EN"
 "http://www.w3.org/TR/2001/REC-SVG-20010904/DTD/svg10.dtd">
<svg version="1.0" xmlns="http://www.w3.org/2000/svg"
 width="500.000000pt" height="500.000000pt" viewBox="0 0 500.000000 500.000000"
 preserveAspectRatio="xMidYMid meet">
<metadata>
Created by potrace 1.16, written by Peter Selinger 2001-2019
</metadata>
<g transform="translate(0.000000,500.000000) scale(0.100000,-0.100000)"
fill="#000000" stroke="none">
<path d="M700 4887 c-71 -38 -90 -84 -90 -226 l0 -116 1884 0 1884 0 6 35 c8
48 6 135 -3 193 -9 55 -39 92 -96 118 -38 18 -110 19 -1791 19 l-1751 0 -43
-23z"/>
<path d="M345 4025 c-267 -288 -341 -372 -343 -396 -10 -92 59 -250 148 -339
234 -234 643 -174 797 116 17 32 36 79 43 103 l12 44 22 -66 c153 -456 811
-453 958 4 l21 67 27 -77 c77 -221 234 -331 475 -331 157 0 252 36 346 129 55
56 111 150 139 234 l12 39 22 -64 c90 -269 383 -409 656 -313 60 21 107 51
167 108 75 70 113 137 150 257 2 8 14 -15 26 -50 54 -161 173 -275 336 -324
80 -24 226 -21 303 5 190 64 338 253 338 434 l0 56 -207 222 c-114 122 -268
286 -342 365 l-134 142 -1816 0 -1816 0 -340 -365z"/>
<path d="M4030 2375 l0 -685 -1535 0 -1535 0 0 680 c0 374 -3 680 -6 680 -3 0
-29 -20 -57 -45 -60 -52 -149 -102 -227 -126 l-55 -17 -3 -1303 c-2 -1148 0
-1309 13 -1350 15 -45 50 -86 92 -108 16 -8 501 -11 1785 -11 l1763 0 37 25
c20 14 46 45 59 72 l24 48 0 1313 0 1313 -68 24 c-82 28 -159 74 -226 132 -27
24 -52 43 -55 43 -3 0 -6 -308 -6 -685z"/>
</g>
</svg>
