<?xml version="1.0" standalone="no"?>
<!DOCTYPE svg PUBLIC "-//W3C//DTD SVG 20010904//EN"
 "http://www.w3.org/TR/2001/REC-SVG-20010904/DTD/svg10.dtd">
<svg version="1.0" xmlns="http://www.w3.org/2000/svg"
 width="500.000000pt" height="500.000000pt" viewBox="0 0 500.000000 500.000000"
 preserveAspectRatio="xMidYMid meet">
<metadata>
Created by potrace 1.16, written by Peter Selinger 2001-2019
</metadata>
<g transform="translate(0.000000,500.000000) scale(0.100000,-0.100000)"
fill="#000000" stroke="none">
<path d="M2215 4859 c-546 -59 -1065 -307 -1451 -693 -380 -381 -611 -856
-685 -1406 -29 -216 -12 -579 37 -805 131 -597 481 -1122 979 -1467 662 -459
1524 -555 2275 -253 693 278 1234 887 1421 1599 61 236 73 337 74 621 0 205
-4 283 -18 370 -85 511 -304 955 -647 1309 -378 391 -833 627 -1370 711 -127
20 -486 28 -615 14z m85 -798 l0 -459 -32 -5 c-76 -13 -739 -89 -744 -85 -6 6
56 193 105 319 102 260 295 583 378 632 26 15 199 50 276 56 16 1 17 -27 17
-458z m565 434 c46 -13 70 -28 106 -64 66 -68 171 -230 244 -378 87 -176 208
-504 191 -520 -3 -3 -177 12 -386 33 l-380 38 0 459 0 460 83 -5 c45 -3 109
-14 142 -23z m-1446 -287 c-56 -141 -188 -489 -202 -533 -9 -27 -26 -91 -37
-141 -12 -51 -27 -98 -33 -107 -7 -8 -43 -25 -82 -37 -117 -37 -344 -129 -448
-182 l-99 -49 7 33 c19 87 120 284 212 412 127 176 359 422 501 530 51 39 189
126 199 126 2 0 -7 -24 -18 -52z m2168 6 c238 -132 584 -526 736 -835 45 -93
81 -188 74 -195 -2 -2 -64 25 -138 60 -130 62 -372 157 -436 170 -17 4 -36 13
-42 20 -6 7 -29 78 -51 157 -69 252 -156 485 -232 618 l-31 54 29 -7 c16 -4
57 -23 91 -42z m-1287 -1749 l0 -796 -77 6 c-239 19 -563 62 -738 98 l-60 13
-12 139 c-23 267 -32 555 -22 743 11 231 42 449 66 473 14 14 92 28 353 63
422 57 387 53 443 55 l47 1 0 -795z m605 785 c256 -22 540 -70 567 -97 18 -19
35 -115 60 -338 20 -184 17 -632 -6 -845 -10 -96 -22 -183 -27 -192 -22 -41
-508 -107 -791 -108 l-68 0 0 795 0 795 73 0 c39 0 126 -5 192 -10z m1204
-306 c47 -26 156 -88 242 -140 127 -76 159 -100 173 -128 23 -48 24 -372 1
-420 -16 -33 -78 -75 -359 -239 -112 -66 -303 -154 -312 -144 -3 2 0 51 6 108
29 287 23 731 -13 995 l-13 91 95 -39 c52 -21 133 -59 180 -84z m-3025 -41
c-10 -208 -10 -532 -1 -780 l9 -223 -69 26 c-112 42 -184 78 -379 191 -250
145 -238 127 -242 358 l-3 182 26 32 c36 42 196 147 320 210 100 51 308 139
333 140 10 1 12 -27 6 -136z m-323 -1252 c63 -26 169 -68 236 -91 68 -23 127
-48 132 -54 5 -6 23 -69 41 -141 54 -218 106 -366 237 -664 3 -7 -20 3 -53 24
-248 157 -434 338 -596 579 -72 108 -180 314 -221 422 l-16 41 63 -34 c35 -18
115 -55 177 -82z m3624 37 c-43 -133 -160 -332 -296 -503 -78 -100 -273 -295
-359 -360 -68 -52 -221 -147 -227 -142 -2 2 21 55 51 118 71 149 137 335 181
506 20 76 41 150 47 165 11 29 19 33 212 99 55 18 168 67 250 109 83 41 152
72 154 68 2 -5 -4 -32 -13 -60z m-2497 -308 c191 -22 362 -42 380 -45 l32 -6
0 -461 0 -461 -62 7 c-92 10 -208 36 -240 52 -69 36 -248 300 -332 491 -35 79
-166 441 -166 459 0 8 45 4 388 -36z m1542 16 c0 -13 -105 -307 -135 -376 -43
-102 -111 -230 -172 -325 -57 -88 -180 -241 -202 -251 -9 -4 -74 -17 -146 -29
l-130 -21 -3 464 c-1 256 -1 466 0 468 5 4 690 71 741 73 26 0 47 -1 47 -3z"/>
</g>
</svg>
