<?xml version="1.0" standalone="no"?>
<!DOCTYPE svg PUBLIC "-//W3C//DTD SVG 20010904//EN"
 "http://www.w3.org/TR/2001/REC-SVG-20010904/DTD/svg10.dtd">
<svg version="1.0" xmlns="http://www.w3.org/2000/svg"
 width="500.000000pt" height="500.000000pt" viewBox="0 0 500.000000 500.000000"
 preserveAspectRatio="xMidYMid meet">
<metadata>
Created by potrace 1.16, written by Peter Selinger 2001-2019
</metadata>
<g transform="translate(0.000000,500.000000) scale(0.100000,-0.100000)"
fill="#000000" stroke="none">
<path d="M2422 4950 c-432 -61 -784 -369 -888 -779 -24 -91 -38 -250 -47 -511
l-2 -75 -227 -3 c-222 -2 -228 -3 -228 -23 0 -11 -68 -795 -150 -1742 -83
-946 -150 -1731 -150 -1744 l0 -23 1840 0 1840 0 0 33 c0 18 -67 809 -150
1757 -82 948 -150 1728 -150 1732 0 4 -98 8 -218 8 -156 0 -221 3 -230 12 -8
8 -12 62 -12 178 0 247 -19 369 -81 523 -132 328 -420 568 -773 643 -87 18
-288 26 -374 14z m318 -327 c88 -21 231 -90 308 -148 120 -91 207 -220 253
-377 18 -62 22 -106 26 -295 l5 -223 -762 0 -762 0 5 218 c5 244 13 286 78
418 74 151 194 269 353 347 175 85 319 103 496 60z m-1232 -1754 c15 -37 76
-87 116 -94 39 -8 67 -1 114 27 56 34 66 66 72 228 l5 145 40 -37 c65 -59 90
-118 90 -213 0 -63 -5 -89 -23 -122 -35 -66 -78 -110 -140 -140 -47 -23 -70
-28 -132 -28 -89 0 -146 24 -209 86 -62 63 -86 120 -86 209 1 89 30 156 92
210 l38 34 6 -140 c3 -76 11 -151 17 -165z m1822 171 c0 -149 8 -179 63 -227
64 -56 146 -53 207 8 40 41 50 84 50 227 0 67 3 122 7 122 22 0 76 -60 104
-115 29 -59 31 -71 27 -137 -6 -86 -30 -140 -89 -199 -60 -60 -119 -84 -209
-84 -59 0 -85 5 -124 24 -63 31 -116 84 -147 147 -34 68 -34 179 0 244 23 45
88 120 103 120 4 0 8 -59 8 -130z"/>
</g>
</svg>
