<?xml version="1.0" standalone="no"?>
<!DOCTYPE svg PUBLIC "-//W3C//DTD SVG 20010904//EN"
 "http://www.w3.org/TR/2001/REC-SVG-20010904/DTD/svg10.dtd">
<svg version="1.0" xmlns="http://www.w3.org/2000/svg"
 width="100.000000pt" height="100.000000pt" viewBox="0 0 100.000000 100.000000"
 preserveAspectRatio="xMidYMid meet">

<g transform="translate(0.000000,100.000000) scale(0.100000,-0.100000)"
fill="#000000" stroke="none">
<path d="M490 930 c0 -35 13 -30 -200 -65 -85 -14 -167 -28 -182 -31 -22 -4
-27 -1 -30 17 -2 12 -9 24 -15 27 -20 6 -18 -134 2 -142 10 -3 15 -19 15 -46
0 -29 -4 -40 -15 -40 -19 0 -19 -29 0 -36 23 -9 23 -494 0 -494 -11 0 -15 -12
-15 -45 l0 -45 455 0 455 0 0 45 c0 33 -4 45 -15 45 -13 0 -15 33 -15 241 0
218 2 243 18 255 16 13 16 15 0 28 -23 17 -25 96 -3 96 12 0 15 14 15 70 0 56
-3 70 -15 70 -9 0 -15 -10 -15 -26 0 -23 -3 -25 -27 -20 -16 3 -98 17 -183 31
-213 35 -200 30 -200 65 0 20 -5 30 -15 30 -10 0 -15 -10 -15 -30z m348 -117
c62 -11 92 -21 92 -30 0 -11 -77 -13 -425 -13 -515 0 -534 6 -213 66 l213 40
120 -23 c66 -13 162 -30 213 -40z m62 -118 l0 -45 -400 0 -400 0 0 38 c0 21 3
42 7 45 3 4 183 7 400 7 l393 0 0 -45z m-680 -300 l0 -215 -60 0 -60 0 0 215
0 215 60 0 60 0 0 -215z m540 0 l0 -215 -25 0 -25 0 0 190 c0 120 4 190 10
190 6 0 10 5 10 10 0 6 -28 10 -65 10 -37 0 -65 -4 -65 -10 0 -5 5 -10 10 -10
6 0 10 -70 10 -190 l0 -190 -35 0 -35 0 0 190 c0 120 4 190 10 190 6 0 10 5
10 10 0 6 -28 10 -65 10 -60 0 -80 -9 -55 -25 6 -4 10 -78 10 -191 l0 -184
-35 0 -35 0 0 190 c0 120 4 190 10 190 6 0 10 5 10 10 0 6 -28 10 -65 10 -37
0 -65 -4 -65 -10 0 -5 5 -10 10 -10 6 0 10 -70 10 -190 l0 -190 -25 0 -25 0 0
215 0 215 255 0 255 0 0 -215z m140 0 l0 -215 -55 0 -55 0 0 215 0 215 55 0
55 0 0 -215z m-540 -25 c0 -162 -2 -190 -15 -190 -13 0 -15 28 -15 190 0 162
2 190 15 190 13 0 15 -28 15 -190z m160 0 c0 -162 -2 -190 -15 -190 -13 0 -15
28 -15 190 0 162 2 190 15 190 13 0 15 -28 15 -190z m158 -3 c2 -162 0 -187
-13 -187 -13 0 -15 27 -15 191 0 148 3 190 13 187 9 -4 13 -53 15 -191z m222
-232 c0 -13 -45 -15 -322 -17 -246 -2 -322 -6 -326 -15 -3 -10 69 -13 337 -13
296 0 341 -2 341 -15 0 -13 -54 -15 -425 -15 -371 0 -425 2 -425 15 0 12 14
15 70 15 56 0 70 3 70 15 0 12 -13 15 -60 15 -55 0 -70 6 -53 23 3 4 183 7
400 7 341 0 393 -2 393 -15z"/>
</g>
</svg>
