<?xml version="1.0" standalone="no"?>
<!DOCTYPE svg PUBLIC "-//W3C//DTD SVG 20010904//EN"
 "http://www.w3.org/TR/2001/REC-SVG-20010904/DTD/svg10.dtd">
<svg version="1.0" xmlns="http://www.w3.org/2000/svg"
 width="500.000000pt" height="500.000000pt" viewBox="0 0 500.000000 500.000000"
 preserveAspectRatio="xMidYMid meet">

<g transform="translate(0.000000,500.000000) scale(0.100000,-0.100000)"
fill="#000000" stroke="none">
<path d="M3609 4617 c-174 -112 -749 -496 -791 -529 -21 -16 -38 -34 -38 -39
0 -5 36 -9 80 -9 l80 0 0 -565 0 -565 -39 0 c-49 0 -83 -27 -83 -64 0 -58 -48
-55 902 -56 481 -1 901 -1 932 -1 65 1 88 17 88 61 0 39 -32 60 -92 60 l-48 0
0 565 0 565 81 0 c60 0 80 3 77 13 -3 12 -772 530 -893 602 -92 54 -117 51
-256 -38z m-289 -1142 l0 -565 -130 0 -130 0 0 565 0 565 130 0 130 0 0 -565z
m770 0 l0 -565 -320 0 -320 0 0 565 0 565 320 0 320 0 0 -565z m390 0 l0 -565
-130 0 -130 0 0 565 0 565 130 0 130 0 0 -565z"/>
<path d="M1933 4316 c-12 -9 -24 -30 -28 -46 -15 -70 39 -141 143 -187 30 -13
51 -28 46 -32 -5 -4 -58 -27 -119 -50 -516 -200 -922 -635 -1069 -1144 -22
-75 -24 -95 -15 -130 16 -64 31 -78 80 -79 58 -1 79 27 125 165 164 491 533
865 1014 1026 50 17 93 31 95 31 2 0 -26 -57 -62 -126 -68 -133 -72 -156 -36
-196 19 -21 88 -24 128 -6 16 7 47 48 84 113 76 129 171 322 171 347 0 40 -29
87 -72 114 -77 49 -397 205 -431 210 -20 3 -40 -1 -54 -10z"/>
<path d="M2590 2690 c-24 -24 -25 -48 -4 -78 l15 -22 1178 0 c931 0 1181 3
1189 13 24 30 23 56 -2 82 l-25 25 -1166 0 c-1152 0 -1165 0 -1185 -20z"/>
<path d="M1162 2535 c-50 -22 -883 -578 -911 -609 l-24 -26 81 0 82 0 0 -564
0 -563 -50 -7 c-53 -7 -70 -24 -70 -70 0 -58 -41 -56 961 -56 870 0 918 1 939
18 26 21 30 66 7 89 -9 9 -38 18 -66 21 l-51 5 0 563 0 564 76 0 c56 0 75 3
72 13 -4 12 -617 425 -842 568 -117 74 -143 80 -204 54z m-382 -1200 l0 -565
-130 0 -130 0 0 565 0 565 130 0 130 0 0 -565z m770 0 l0 -565 -325 0 -325 0
0 565 0 565 325 0 325 0 0 -565z m380 0 l0 -565 -130 0 -130 0 0 565 0 565
130 0 130 0 0 -565z"/>
<path d="M4144 2360 c-34 -14 -51 -45 -95 -179 -182 -554 -564 -958 -1104
-1169 -105 -41 -175 -63 -175 -56 0 3 32 66 70 140 40 76 70 147 70 163 0 64
-92 125 -152 102 -14 -5 -37 -25 -51 -43 -42 -57 -265 -484 -272 -521 -15 -76
18 -100 383 -281 202 -100 226 -104 278 -52 29 29 34 41 34 79 0 39 -5 49 -36
76 -19 17 -76 52 -127 77 l-91 46 99 38 c622 233 1048 661 1270 1275 73 203
71 267 -10 301 -38 16 -60 17 -91 4z"/>
<path d="M63 560 c-22 -9 -43 -39 -43 -60 0 -6 11 -22 25 -35 l24 -25 1161 0
1161 0 24 25 c30 29 31 45 6 76 l-19 24 -1159 2 c-655 1 -1167 -2 -1180 -7z"/>
</g>
</svg>
