<?xml version="1.0" standalone="no"?>
<!DOCTYPE svg PUBLIC "-//W3C//DTD SVG 20010904//EN"
 "http://www.w3.org/TR/2001/REC-SVG-20010904/DTD/svg10.dtd">
<svg version="1.0" xmlns="http://www.w3.org/2000/svg"
 width="500.000000pt" height="500.000000pt" viewBox="0 0 500.000000 500.000000"
 preserveAspectRatio="xMidYMid meet">

<g transform="translate(0.000000,500.000000) scale(0.100000,-0.100000)"
fill="#000000" stroke="none">
<path d="M1920 3625 c-982 -311 -1802 -567 -1822 -571 l-38 -7 0 -1043 0
-1044 2442 2 2443 3 0 1040 0 1040 -175 5 -175 5 -70 313 c-47 212 -75 316
-85 322 -9 4 -93 -4 -200 -21 -102 -15 -188 -28 -191 -29 -4 0 -70 122 -149
270 -78 149 -148 270 -155 270 -7 0 -19 2 -27 4 -7 3 -816 -249 -1798 -559z
m1894 231 c64 -121 116 -223 116 -228 0 -4 -5 -8 -10 -8 -6 0 -715 -106 -1577
-235 -861 -129 -1568 -234 -1569 -232 -2 2 654 211 1459 464 804 254 1463 460
1463 460 1 -1 54 -101 118 -221z m620 -540 c31 -142 55 -260 53 -262 -2 -2
-826 -3 -1831 -2 l-1827 3 1768 266 c972 146 1771 263 1774 260 3 -3 31 -122
63 -265z m406 -1311 l0 -945 -2340 0 -2340 0 0 945 0 945 2340 0 2340 0 0
-945z"/>
<path d="M1225 2648 c-2 -7 -6 -29 -9 -49 -17 -98 -117 -170 -269 -194 l-37
-6 2 -371 c3 -410 -2 -381 70 -393 84 -13 174 -123 187 -228 l6 -52 1320 0
1319 0 8 42 c19 115 113 193 261 218 l37 6 -2 377 -3 376 -42 8 c-83 14 -135
57 -177 148 -14 30 -26 69 -26 86 0 20 -6 34 -16 38 -9 3 -603 6 -1320 6
-1035 0 -1305 -3 -1309 -12z m2555 -101 c0 -8 14 -41 31 -75 34 -70 120 -154
174 -172 l35 -12 -2 -290 -3 -291 -53 -18 c-98 -33 -193 -123 -224 -209 l-10
-30 -1234 0 c-1192 0 -1234 1 -1234 18 0 36 -61 140 -105 181 -25 23 -65 51
-90 63 l-45 22 0 293 c0 250 2 293 15 293 8 0 39 9 70 21 70 26 154 102 186
169 l24 50 1232 0 c1024 0 1233 -2 1233 -13z"/>
</g>
</svg>
