<?xml version="1.0" standalone="no"?>
<!DOCTYPE svg PUBLIC "-//W3C//DTD SVG 20010904//EN"
 "http://www.w3.org/TR/2001/REC-SVG-20010904/DTD/svg10.dtd">
<svg version="1.0" xmlns="http://www.w3.org/2000/svg"
 width="500.000000pt" height="500.000000pt" viewBox="0 0 500.000000 500.000000"
 preserveAspectRatio="xMidYMid meet">

<g transform="translate(0.000000,500.000000) scale(0.100000,-0.100000)"
fill="#000000" stroke="none">
<path d="M4571 4394 c-50 -47 -140 -140 -199 -207 -107 -120 -342 -406 -342
-418 0 -5 195 -150 211 -157 4 -2 23 19 42 47 29 45 36 49 51 38 16 -12 5 -30
-120 -201 -109 -151 -135 -192 -127 -205 27 -42 48 -21 230 229 98 135 188
259 201 277 23 33 21 57 -6 68 -12 5 -28 -6 -54 -36 -24 -28 -41 -40 -52 -36
-9 4 -16 11 -16 16 0 5 27 53 60 106 87 140 205 353 245 443 l34 77 -27 22
c-15 12 -30 22 -33 23 -4 0 -47 -39 -98 -86z"/>
<path d="M3945 3628 c-41 -57 -126 -173 -188 -258 l-113 -155 -1762 -3 -1762
-2 2 -1018 3 -1017 2390 0 2390 0 3 1017 2 1018 -490 2 -489 3 105 145 c59 80
122 166 140 191 l34 47 -89 66 c-48 36 -91 66 -94 66 -4 0 -40 -46 -82 -102z
m-466 -640 c-45 -62 -91 -124 -101 -138 -22 -28 -29 -20 99 -110 l71 -50 149
205 148 205 478 0 477 0 0 -905 0 -905 -2280 0 -2280 0 0 905 0 905 1660 0
1660 0 -81 -112z"/>
<path d="M3342 2777 c-6 -7 -16 -35 -22 -62 -6 -28 -13 -58 -16 -67 -3 -11 8
-26 32 -44 l36 -28 65 34 c78 40 86 55 48 84 -122 89 -133 96 -143 83z"/>
<path d="M557 2653 c-4 -3 -7 -28 -7 -54 l0 -47 253 -7 c138 -4 281 -5 317 -3
l65 3 3 51 3 51 -62 7 c-82 8 -564 8 -572 -1z"/>
<path d="M3285 2563 c-9 -36 7 -48 33 -26 l21 18 -23 17 c-23 17 -24 17 -31
-9z"/>
<path d="M550 2275 l0 -55 320 0 320 0 0 55 0 55 -320 0 -320 0 0 -55z"/>
<path d="M550 1917 l0 -54 430 -7 c236 -4 434 -5 440 -1 5 3 10 31 10 61 l0
54 -440 0 -440 0 0 -53z"/>
<path d="M1564 1957 c-3 -8 -4 -34 -2 -58 l3 -44 318 -3 317 -2 0 55 0 55
-292 0 c-161 0 -303 3 -315 6 -15 4 -25 1 -29 -9z"/>
<path d="M550 1575 l0 -55 975 0 975 0 0 55 0 55 -975 0 -975 0 0 -55z"/>
<path d="M2600 1575 l0 -55 210 -2 c116 -1 243 -3 283 -3 l72 0 0 55 0 55
-282 3 -283 2 0 -55z"/>
<path d="M3287 1623 c-4 -3 -7 -27 -7 -53 l0 -47 107 -6 c58 -4 180 -7 270 -7
l163 0 0 53 0 54 -107 6 c-138 9 -418 9 -426 0z"/>
</g>
</svg>
