<?xml version="1.0" standalone="no"?>
<!DOCTYPE svg PUBLIC "-//W3C//DTD SVG 20010904//EN"
 "http://www.w3.org/TR/2001/REC-SVG-20010904/DTD/svg10.dtd">
<svg version="1.0" xmlns="http://www.w3.org/2000/svg"
 width="500.000000pt" height="500.000000pt" viewBox="0 0 500.000000 500.000000"
 preserveAspectRatio="xMidYMid meet">

<g transform="translate(0.000000,500.000000) scale(0.100000,-0.100000)"
fill="#000000" stroke="none">
<path d="M255 4026 c-16 -7 -43 -25 -58 -40 -60 -56 -57 13 -57 -1286 0 -1149
1 -1192 19 -1228 22 -42 42 -62 91 -88 34 -18 107 -19 2220 -22 1454 -1 2202
1 2239 8 65 12 115 48 145 106 21 39 21 45 21 1229 l0 1190 -23 42 c-12 24
-41 55 -64 70 l-42 28 -2230 2 c-1841 2 -2236 0 -2261 -11z m4453 -148 c8 -8
12 -56 12 -150 l0 -138 -2215 0 -2215 0 0 138 c0 94 4 142 12 150 17 17 4389
17 4406 0z m12 -1392 c0 -861 -2 -954 -16 -960 -9 -3 -1000 -6 -2203 -6 -1688
0 -2190 3 -2199 12 -9 9 -12 236 -12 960 l0 948 2215 0 2215 0 0 -954z"/>
<path d="M490 2010 l0 -210 213 2 212 3 3 208 2 207 -215 0 -215 0 0 -210z"/>
</g>
</svg>
