<?xml version="1.0" standalone="no"?>
<!DOCTYPE svg PUBLIC "-//W3C//DTD SVG 20010904//EN"
 "http://www.w3.org/TR/2001/REC-SVG-20010904/DTD/svg10.dtd">
<svg version="1.0" xmlns="http://www.w3.org/2000/svg"
 width="500.000000pt" height="500.000000pt" viewBox="0 0 500.000000 500.000000"
 preserveAspectRatio="xMidYMid meet">

<g transform="translate(0.000000,500.000000) scale(0.100000,-0.100000)"
fill="#000000" stroke="none">
<path d="M255 4026 c-16 -7 -43 -25 -58 -40 -60 -56 -57 13 -57 -1286 0 -1149
1 -1192 19 -1228 22 -42 42 -62 91 -88 34 -18 107 -19 2220 -22 1454 -1 2202
1 2239 8 65 12 115 48 145 106 21 39 21 45 21 1229 l0 1190 -23 42 c-12 24
-41 55 -64 70 l-42 28 -2230 2 c-1841 2 -2236 0 -2261 -11z m4453 -148 c8 -8
12 -56 12 -150 l0 -138 -2215 0 -2215 0 0 138 c0 94 4 142 12 150 17 17 4389
17 4406 0z m12 -1392 c0 -861 -2 -954 -16 -960 -9 -3 -1000 -6 -2203 -6 -1688
0 -2190 3 -2199 12 -9 9 -12 236 -12 960 l0 948 2215 0 2215 0 0 -954z"/>
<path d="M4111 2687 c-9 -12 -4 -25 23 -66 43 -63 56 -107 56 -187 0 -72 -17
-127 -59 -188 -30 -42 -30 -44 -11 -61 18 -16 20 -15 49 25 95 131 96 334 3
449 -33 41 -45 46 -61 28z"/>
<path d="M4038 2613 c-15 -14 -14 -19 10 -55 18 -28 27 -57 30 -99 5 -71 0
-95 -32 -141 -24 -36 -24 -37 -5 -54 18 -17 20 -17 35 2 60 75 74 189 35 281
-13 28 -31 59 -40 67 -15 14 -19 14 -33 -1z"/>
<path d="M3960 2535 c-9 -11 -8 -23 5 -58 15 -41 15 -47 1 -82 -15 -35 -15
-40 -1 -54 13 -13 17 -13 29 -1 16 18 36 75 36 103 0 25 -38 107 -50 107 -4 0
-13 -7 -20 -15z"/>
<path d="M490 2010 l0 -210 213 2 212 3 3 208 2 207 -215 0 -215 0 0 -210z"/>
</g>
</svg>
