<?xml version="1.0" standalone="no"?>
<!DOCTYPE svg PUBLIC "-//W3C//DTD SVG 20010904//EN"
 "http://www.w3.org/TR/2001/REC-SVG-20010904/DTD/svg10.dtd">
<svg version="1.0" xmlns="http://www.w3.org/2000/svg"
 width="467.000000pt" height="213.000000pt" viewBox="0 0 467.000000 213.000000"
 preserveAspectRatio="xMidYMid meet">
<metadata>
Created by potrace 1.16, written by Peter Selinger 2001-2019
</metadata>
<g transform="translate(0.000000,213.000000) scale(0.100000,-0.100000)"
fill="#000000" stroke="none">
<path d="M3677 2115 c-18 -5 -32 -15 -32 -22 0 -6 -4 -15 -9 -20 -5 -5 -6 -3
-2 5 4 6 2 12 -3 12 -6 0 -11 -7 -11 -15 0 -8 -5 -15 -11 -15 -5 0 -7 5 -3 12
5 8 2 9 -12 3 -10 -5 -66 -8 -124 -8 -89 0 -93 -1 -25 -4 44 -2 83 -7 87 -11
4 -4 -25 -5 -64 -4 -92 5 -131 -3 -167 -34 -24 -20 -29 -21 -26 -7 1 10 7 17
11 16 5 0 15 5 22 13 11 12 10 14 -4 14 -19 0 -167 -147 -153 -152 5 -2 0 -9
-12 -16 -12 -8 -18 -9 -14 -3 7 13 -18 13 -55 1 l-25 -8 25 -2 c32 -3 -175
-45 -260 -53 -78 -7 -69 0 15 12 41 6 49 9 25 9 -19 1 -75 -7 -125 -18 -67
-14 -76 -17 -35 -13 30 3 53 3 50 0 -11 -12 -304 -47 -390 -47 -65 0 -90 -3
-90 -12 0 -9 -3 -10 -8 -2 -10 15 -266 29 -539 29 -122 0 -220 1 -218 3 2 2
43 7 92 11 86 8 87 8 23 9 -60 2 -190 -24 -145 -28 11 -1 -2 -8 -30 -15 -27
-8 -59 -12 -71 -9 -14 4 -28 -1 -40 -14 -11 -11 -30 -23 -44 -26 l-25 -7 25
15 c30 18 24 20 -19 5 -22 -8 -29 -14 -21 -19 9 -6 7 -9 -6 -13 -125 -37 -148
-42 -198 -46 -13 -1 -16 -6 -12 -18 5 -16 4 -16 -8 1 -11 13 -22 17 -39 12
-13 -3 -82 -8 -153 -11 -115 -4 -202 -12 -314 -30 l-35 -5 33 10 c18 6 59 15
90 20 l57 9 -65 -5 c-62 -4 -175 -32 -137 -33 32 -2 9 -18 -25 -18 -27 -1 -29
1 -13 7 11 5 15 9 8 9 -21 2 -62 -18 -83 -39 -11 -11 -26 -20 -33 -20 -6 1 -1
7 13 15 42 24 12 17 -47 -11 -30 -15 -51 -29 -45 -33 6 -3 -6 -17 -26 -30 -23
-15 -32 -18 -23 -8 7 10 9 17 3 17 -12 0 -34 -25 -27 -32 3 -3 -3 -11 -12 -19
-16 -13 -17 -12 -4 4 25 32 -5 17 -41 -20 -60 -63 -88 -112 -82 -142 4 -18 3
-22 -4 -13 -6 9 -9 -44 -10 -146 0 -87 4 -165 10 -173 7 -10 8 -7 3 11 -5 22
-4 22 11 -5 10 -16 18 -37 19 -45 4 -26 17 -50 28 -50 5 0 2 10 -9 23 -10 12
1 4 24 -18 43 -40 52 -52 30 -39 -9 5 -9 2 1 -9 15 -19 36 -23 25 -5 -4 7 -3
8 5 4 6 -4 9 -12 6 -17 -4 -5 10 -16 29 -26 23 -10 36 -24 36 -36 0 -19 39
-73 69 -93 9 -6 27 -14 41 -18 20 -6 22 -5 10 4 -12 10 -12 11 5 5 47 -15 119
-24 163 -20 l47 4 -40 -9 c-36 -8 -88 -6 -140 6 -16 4 -17 3 -5 -4 29 -19 99
-23 161 -11 47 9 58 14 43 20 -18 7 -18 8 3 8 12 1 27 3 35 4 7 2 10 2 7 0 -7
-4 5 -90 13 -99 3 -3 4 14 1 38 -3 29 0 49 11 63 14 19 15 18 4 -12 -9 -25 -9
-43 1 -83 11 -41 11 -66 0 -135 -12 -84 -12 -85 16 -137 31 -59 68 -194 58
-211 -3 -5 -1 -7 4 -4 6 4 19 -3 29 -16 19 -21 19 -21 -1 -7 -17 12 -18 12 -7
0 19 -22 162 -22 180 -1 9 12 12 13 10 2 -2 -11 12 -15 60 -16 35 0 55 2 45 6
-10 4 -13 8 -6 8 6 1 19 4 29 8 13 5 15 3 9 -8 -5 -9 -1 -8 11 3 21 18 26 81
10 127 -6 18 -5 22 5 16 8 -5 -2 8 -20 28 -34 36 -60 50 -45 25 4 -8 3 -10 -2
-5 -5 5 -9 14 -9 20 0 5 -6 12 -14 15 -8 3 -11 1 -8 -4 3 -5 -17 -8 -44 -7
-29 0 -49 -3 -49 -10 0 -6 -3 -8 -6 -4 -9 9 -10 77 -1 80 4 1 14 28 21 60 12
52 55 132 65 121 2 -2 -2 -12 -10 -21 -27 -34 -39 -62 -44 -105 l-5 -43 13 45
c21 68 33 94 51 109 9 7 14 17 11 21 -3 5 0 12 6 16 8 4 9 3 5 -5 -6 -9 0 -10
21 -5 45 11 71 22 77 33 4 6 -10 4 -31 -5 -30 -11 -34 -12 -21 -1 20 16 14 27
-16 27 -21 1 -21 1 -2 15 26 19 34 19 32 -1 0 -9 5 -19 12 -21 8 -3 10 1 5 12
-5 15 -3 16 15 6 18 -10 26 -5 68 42 26 28 41 43 34 32 -8 -11 -27 -35 -44
-52 -16 -18 -26 -33 -20 -33 11 1 100 111 97 121 -1 4 7 5 17 2 11 -3 20 -1
20 5 0 6 21 15 47 20 56 12 70 8 22 -7 -19 -5 -26 -10 -16 -10 19 -1 77 25 77
35 0 3 -6 2 -12 -2 -7 -4 -2 5 11 19 14 15 27 27 29 27 3 0 -3 -9 -13 -20 -19
-21 -8 -29 12 -9 16 16 29 -13 44 -94 11 -59 15 -66 38 -70 l26 -4 -27 -2
c-16 0 -28 -2 -28 -4 0 -2 -5 -29 -11 -61 -14 -77 -5 -111 46 -165 24 -25 45
-50 47 -56 1 -5 8 -9 15 -9 6 1 24 -12 40 -30 25 -27 25 -29 3 -11 l-25 20 24
-28 c25 -27 48 -37 35 -14 -4 6 2 3 14 -7 26 -23 29 -34 5 -15 -15 11 -14 10
1 -9 20 -23 42 -31 30 -9 -4 7 -3 9 2 4 5 -5 9 -12 9 -15 0 -13 16 -32 27 -32
6 0 5 7 -3 17 -10 12 -2 10 29 -7 24 -14 49 -31 55 -39 7 -8 -2 -5 -20 7 -51
36 -48 25 9 -28 33 -30 66 -52 87 -56 37 -7 246 12 297 27 24 8 33 17 38 41
11 56 6 77 -26 115 -30 35 -30 36 -4 13 16 -14 35 -38 42 -55 8 -19 13 -24 14
-12 0 9 -18 37 -40 61 -40 43 -42 44 -118 48 -42 3 -86 8 -96 13 -15 7 -17 5
-11 -6 5 -8 5 -11 -1 -6 -5 5 -9 13 -9 17 0 9 -102 100 -112 100 -4 0 2 -10
13 -22 17 -20 17 -21 1 -9 -38 30 -67 124 -44 138 7 4 21 19 30 33 9 13 17 20
17 14 0 -5 -5 -15 -12 -22 -6 -6 -9 -14 -6 -17 6 -7 68 108 68 126 0 8 -9 -4
-20 -26 -11 -22 -18 -33 -16 -25 20 66 27 94 40 154 10 45 28 85 51 117 36 50
43 65 25 54 -5 -3 -10 0 -10 8 0 7 -12 20 -26 28 -15 7 -44 34 -65 58 -25 28
-39 38 -39 27 0 -10 -8 -16 -24 -16 -46 0 -53 19 -52 144 1 64 -2 116 -6 116
-5 0 -8 -5 -8 -11 0 -5 -5 -7 -10 -4 -6 4 -10 -37 -10 -114 l0 -121 -32 -1
c-18 -1 -39 -1 -45 0 -7 1 -27 -6 -44 -15 -28 -14 -30 -18 -15 -26 12 -7 24
-5 42 6 22 15 24 15 24 -2 0 -10 6 -24 13 -31 6 -8 -1 -6 -16 4 -21 14 -27 15
-25 4 2 -8 8 -18 13 -22 6 -5 4 -7 -5 -4 -8 2 -14 10 -12 16 1 6 -6 11 -16 11
-10 0 -23 5 -30 12 -15 15 -111 -57 -152 -114 -38 -53 -39 -40 -1 15 37 55
102 117 138 133 l28 13 -30 -2 c-29 -2 -30 0 -33 46 -2 28 -8 47 -15 47 -7 0
-6 4 3 10 13 9 13 11 0 20 -10 6 -11 10 -2 10 9 0 12 34 12 134 l0 135 -68 98
c-78 113 -91 133 -73 117 6 -6 42 -55 80 -110 l68 -98 82 3 c97 3 111 -4 111
-64 0 -30 5 -45 16 -49 24 -9 24 -9 24 32 0 26 -7 45 -20 57 -11 10 -20 23
-20 28 0 6 9 2 20 -8 11 -10 20 -13 20 -7 0 7 15 12 34 12 27 0 35 -5 39 -22
2 -13 8 -32 12 -42 6 -13 5 -17 -2 -13 -7 5 -9 -1 -5 -15 5 -21 7 -19 24 17 9
22 18 48 18 58 0 13 9 17 41 17 34 0 39 -3 35 -17 -3 -10 -17 -56 -32 -103
l-26 -84 23 -74 c13 -41 29 -76 35 -79 9 -3 10 -14 3 -36 -5 -18 -9 -33 -9
-34 0 -2 11 -3 24 -3 33 0 42 -16 16 -30 -27 -14 -25 -44 3 -58 14 -7 16 -11
7 -11 -13 -1 -13 -3 0 -12 13 -9 12 -10 -2 -5 -10 3 -20 1 -23 -4 -4 -6 8 -10
25 -10 22 0 29 4 25 12 -4 7 -1 6 7 -3 17 -20 58 -42 66 -35 3 3 1 6 -4 6 -6
0 -19 7 -30 15 -14 11 -8 10 23 -3 23 -9 37 -19 32 -21 -6 -2 8 -12 32 -22 26
-12 45 -16 48 -10 4 6 12 6 21 1 13 -9 13 -10 0 -11 -18 -1 39 -28 60 -28 8 0
2 6 -15 14 l-30 14 30 -7 c17 -4 92 -7 168 -7 75 0 137 -1 137 -3 0 -1 -16
-63 -35 -138 -19 -74 -35 -151 -35 -170 0 -19 -11 -62 -25 -97 -39 -96 -42
-128 -12 -163 24 -27 24 -30 10 -57 -8 -17 -12 -40 -8 -54 4 -18 2 -23 -7 -18
-7 4 3 -9 23 -28 l37 -35 157 0 c87 0 152 4 145 8 -9 5 -8 9 4 13 8 3 16 1 18
-4 2 -6 12 0 23 13 19 21 19 22 1 8 -18 -14 -19 -14 -7 8 8 15 10 34 5 50 -4
15 -8 33 -8 41 -1 8 -7 16 -15 19 -8 3 -11 0 -7 -7 5 -7 1 -9 -8 -5 -9 3 -14
9 -11 14 2 4 -7 12 -21 19 -35 16 -44 13 -14 -4 28 -16 19 -20 -11 -5 -10 6
-19 20 -19 30 0 11 -5 20 -11 20 -5 0 -7 -6 -3 -12 6 -10 5 -10 -7 -1 -12 10
-18 10 -28 0 -11 -10 -11 -8 -3 8 6 11 13 36 16 55 4 20 21 58 40 85 85 127
123 188 154 242 18 32 44 72 58 88 14 17 7 2 -16 -33 -23 -35 -40 -66 -37 -68
2 -3 16 15 31 40 14 25 35 51 46 59 11 8 17 18 13 23 -4 5 9 -6 29 -25 21 -19
36 -37 33 -39 -6 -7 15 -32 27 -32 5 0 6 4 3 10 -4 6 3 6 21 0 15 -6 46 -11
70 -12 28 -2 39 -5 29 -10 -7 -5 -33 -4 -57 1 -23 6 -44 8 -46 6 -8 -7 82 -26
101 -21 14 3 29 -5 48 -26 32 -33 38 -27 13 12 l-16 25 21 -24 c12 -13 21 -29
21 -35 0 -7 22 -45 50 -85 27 -39 45 -69 39 -66 -5 4 -30 37 -54 73 -25 37
-45 63 -45 59 0 -19 103 -158 136 -183 19 -15 46 -49 60 -76 14 -28 42 -61 66
-78 43 -32 64 -38 52 -17 -5 9 -4 9 6 0 7 -6 23 -37 36 -69 13 -31 19 -53 13
-47 -5 5 -18 32 -29 59 -10 27 -19 42 -19 34 -1 -51 69 -140 101 -127 8 4 7 6
-4 6 -9 1 -20 5 -23 11 -4 7 3 7 20 0 15 -6 59 -11 98 -12 l72 -2 -75 -6 c-58
-5 -44 -6 58 -5 124 2 134 4 157 25 14 13 25 28 25 34 0 6 -5 4 -10 -4 -8 -11
-9 -8 -5 11 6 26 6 26 -33 19 -30 -5 -39 -4 -35 5 2 7 12 11 21 9 9 -2 23 0
31 5 12 8 11 17 -10 55 -22 43 -27 46 -64 46 -33 1 -37 2 -22 11 10 6 30 8 45
5 26 -5 26 -5 -3 9 -16 8 -45 14 -62 15 -20 0 -33 5 -33 13 0 7 -16 37 -36 67
-19 29 -42 65 -49 79 -8 14 -14 21 -15 16 0 -6 20 -42 45 -80 25 -39 45 -78
45 -87 0 -12 11 -18 38 -21 l37 -4 -39 1 c-34 1 -41 5 -47 27 -3 14 -25 55
-48 89 -22 35 -41 68 -41 72 0 9 -80 3 -152 -10 -26 -5 -45 -6 -43 -1 7 11 98
29 146 29 39 0 40 1 37 33 l-3 32 -58 -3 c-38 -1 -56 1 -52 8 3 5 26 10 51 10
52 0 60 12 46 64 -8 29 -7 37 6 48 15 11 15 11 6 -2 -7 -11 -6 -28 3 -60 l13
-45 -5 45 c-5 41 -3 49 26 75 17 17 35 39 41 50 6 11 -5 4 -23 -16 -19 -19
-26 -25 -16 -13 10 11 26 43 36 69 17 45 18 46 25 21 3 -14 11 -26 17 -26 6 0
7 -5 3 -11 -15 -24 33 11 76 57 25 26 39 44 33 40 -20 -11 -15 6 10 36 l22 27
27 -52 c20 -37 22 -45 8 -28 -11 13 -20 19 -20 14 0 -5 13 -22 29 -37 31 -30
56 -27 48 4 -3 12 7 29 27 47 l31 28 -25 -29 -25 -30 41 32 c22 17 46 38 53
46 10 12 8 14 -13 12 -24 -3 -24 -3 -8 20 9 13 20 24 24 24 3 0 4 10 0 22 -3
14 -2 19 6 14 7 -4 12 -18 12 -32 0 -23 2 -24 73 -24 70 0 97 10 97 35 0 5 -8
1 -17 -10 l-16 -20 8 20 c5 11 11 45 15 75 5 30 11 65 15 76 4 12 2 33 -5 45
-11 23 -11 23 5 4 11 -13 14 -29 10 -45 -4 -14 -8 -47 -9 -75 -3 -43 -2 -44 1
-5 2 25 8 49 14 55 15 15 10 51 -12 79 -21 26 -46 37 -33 14 4 -8 3 -10 -2 -5
-14 13 -11 31 6 39 8 4 -4 7 -28 7 -27 1 -41 -3 -37 -9 4 -6 10 -8 15 -5 5 3
12 0 16 -7 4 -7 3 -10 -1 -5 -5 4 -17 -1 -28 -10 -11 -10 -17 -12 -13 -5 5 8
1 12 -11 13 -16 0 -16 1 2 9 12 5 14 9 6 9 -8 1 -11 4 -7 8 10 10 226 30 220
21 -3 -4 -15 -9 -27 -9 -16 -1 -17 -3 -5 -6 23 -6 60 15 52 29 -4 6 -3 8 4 4
6 -3 27 10 48 29 35 34 38 40 40 98 2 60 -7 87 -28 87 -6 0 -4 -8 3 -17 11
-14 9 -14 -9 1 -22 19 -22 19 -60 -15 l-37 -34 34 37 c21 23 30 41 26 50 -6
10 -5 11 6 1 19 -19 34 -16 18 3 -9 11 -22 14 -42 10 -25 -5 -28 -4 -17 9 7 8
17 12 24 8 6 -3 2 5 -9 18 -63 74 -95 108 -95 102 0 -3 8 -16 18 -27 17 -21
17 -21 -5 -3 -11 10 -24 35 -28 55 -4 20 -16 50 -27 67 l-20 30 26 -30 c14
-16 26 -37 27 -45 0 -10 2 -11 6 -3 2 7 -10 33 -27 59 -23 33 -35 43 -43 35
-6 -6 -18 -11 -26 -10 -10 0 -7 4 7 9 22 9 31 30 12 30 -7 0 -7 6 0 19 5 11
10 36 10 55 0 28 -4 36 -18 36 -11 0 -27 -9 -37 -20 -23 -26 -34 -25 -45 3 -5
12 -9 16 -9 9 -1 -7 4 -23 10 -35 10 -21 10 -21 -5 -3 -9 11 -16 25 -16 32 0
7 -6 15 -12 17 -10 4 -10 6 -1 6 15 1 2 40 -28 82 -11 16 -18 29 -14 29 3 0
19 -21 35 -47 17 -26 30 -43 30 -37 0 21 -75 114 -92 114 -5 0 -6 -5 -3 -10
14 -23 -51 3 -72 29 -25 29 -30 46 -10 35 8 -5 8 -2 -2 9 -16 20 -36 23 -25 5
6 -10 4 -10 -8 0 -19 15 -361 13 -411 -3z m-247 -256 c13 -9 12 -10 -2 -5 -33
10 -85 -87 -75 -140 2 -13 1 -26 -3 -29 -4 -2 -7 -22 -8 -45 -2 -52 26 -84 69
-78 16 3 29 1 29 -3 0 -12 -30 -19 -58 -14 -15 3 -21 2 -14 -1 6 -3 10 -9 7
-14 -7 -11 16 -61 26 -55 4 3 5 -3 2 -13 -5 -20 22 -48 52 -54 11 -2 21 -13
23 -25 4 -24 32 -41 32 -18 0 32 30 45 104 45 43 0 77 -5 84 -12 8 -8 12 -47
12 -110 l0 -98 64 -63 c60 -59 126 -149 126 -171 0 -6 -9 5 -21 24 -22 37
-148 170 -161 170 -5 0 -8 -33 -8 -74 0 -70 -1 -74 -24 -80 -44 -11 -52 -1
-48 64 3 58 2 60 -23 60 -21 0 -25 -5 -25 -30 0 -21 5 -30 18 -31 16 -1 16 -2
0 -6 -11 -3 -18 -14 -18 -29 0 -20 -5 -24 -30 -24 -16 0 -30 -4 -30 -10 0 -5
4 -10 8 -10 11 0 61 -40 93 -74 72 -76 106 -197 75 -270 l-16 -38 28 6 c27 5
27 5 -3 -9 -49 -23 -57 -19 -35 17 36 60 22 164 -33 241 -11 16 -53 56 -94 88
-62 49 -81 59 -114 59 -36 0 -39 2 -39 28 0 27 -15 52 -32 52 -4 0 -8 -13 -8
-28 0 -48 -24 -59 -117 -54 -76 4 -81 6 -80 26 0 11 0 70 -1 131 -2 102 -3
108 -19 92 -14 -13 -17 -37 -17 -129 l-1 -113 -36 -3 -37 -3 -23 73 -24 73 -3
-55 c-2 -33 1 -56 8 -58 22 -8 -13 -32 -46 -32 l-33 0 -3 88 c-2 48 -2 140 0
205 l3 118 36 -3 c36 -3 37 -4 59 -73 l22 -70 1 73 1 72 34 0 c42 0 47 -12 39
-95 -4 -42 -2 -65 4 -65 23 0 36 33 37 95 l1 65 35 1 c84 2 136 -3 148 -15 10
-10 13 -47 13 -143 -1 -118 0 -131 19 -148 20 -18 20 -18 20 106 0 86 -4 129
-12 138 -10 11 -10 13 0 7 9 -5 12 4 12 34 0 26 -5 43 -15 46 -8 3 -17 14 -20
23 -3 10 -12 18 -19 18 -8 0 -12 -6 -8 -15 3 -10 1 -13 -6 -8 -17 10 -15 36 3
36 13 0 14 4 4 21 -9 17 -13 19 -20 8 -7 -11 -9 -10 -9 4 0 9 4 17 8 17 5 0 9
37 9 83 1 96 16 158 52 209 29 42 30 42 51 27z m-344 -42 c-42 -52 -63 -99
-77 -174 -19 -103 -48 -178 -84 -220 l-35 -41 0 -187 c1 -103 -1 -189 -4 -192
-2 -3 -34 -5 -71 -4 -58 0 -70 -3 -91 -24 -23 -23 -24 -30 -23 -147 1 -91 -3
-133 -14 -163 l-16 -40 7 45 c4 25 6 61 5 80 -4 143 -3 182 11 207 18 35 63
61 97 57 l26 -4 1 122 c0 68 0 158 1 201 l1 77 40 0 c62 0 82 38 130 245 15
68 47 134 83 173 45 47 54 39 13 -11z m-2006 -379 l-19 -42 32 -24 c41 -30
101 -61 126 -65 11 -2 24 -7 28 -11 5 -5 -8 -5 -27 -1 -36 8 -136 60 -146 76
-10 16 -19 9 -37 -29 -10 -20 -27 -48 -38 -62 l-20 -25 12 25 c18 38 5 22 -50
-62 -61 -94 -84 -138 -77 -146 3 -3 6 0 6 8 0 10 4 10 17 -1 9 -8 14 -9 10 -2
-4 6 0 18 8 27 9 9 11 17 5 21 -5 3 -10 1 -10 -6 0 -7 -3 -9 -6 -6 -6 6 73
137 83 137 5 0 -3 -15 -30 -53 -16 -24 -17 -30 -5 -45 12 -15 11 -16 -4 -4
-28 22 -35 -8 -7 -30 13 -11 18 -16 10 -12 -11 5 -13 3 -7 -12 4 -10 4 -16 1
-12 -13 13 -75 -64 -100 -124 -50 -121 -65 -172 -65 -225 0 -31 -4 -53 -11
-53 -5 0 -8 4 -5 9 4 5 -3 7 -15 4 -13 -4 -17 -8 -9 -13 8 -5 4 -9 -9 -13 -13
-3 -19 -1 -15 5 4 6 -1 8 -14 4 -15 -5 -28 3 -56 35 -20 24 -38 40 -41 37 -3
-3 17 -26 44 -51 28 -26 47 -47 43 -47 -4 0 -41 35 -82 77 -41 42 -66 70 -55
63 20 -15 20 -14 1 8 -20 23 -43 31 -30 10 4 -7 3 -8 -5 -4 -6 4 -9 11 -6 16
6 9 -38 40 -57 40 -7 -1 -1 -8 15 -16 39 -21 33 -26 -11 -7 -20 8 -63 19 -95
23 -51 6 -58 4 -54 -10 3 -11 -3 -16 -17 -18 -16 -1 -17 1 -6 8 12 7 11 12 -4
29 -18 20 -18 20 15 11 19 -6 52 -9 74 -9 33 1 28 3 -25 11 -35 5 -72 15 -81
23 -22 21 -34 19 -18 -2 7 -10 -6 0 -29 22 -23 22 -52 60 -64 85 -11 25 -28
54 -37 65 -15 18 -15 19 2 6 16 -12 17 -10 17 26 0 57 23 126 59 175 17 23 31
38 31 33 0 -5 -8 -18 -17 -29 -10 -12 -3 -8 14 8 18 16 30 32 28 36 -3 4 3 14
12 21 14 12 16 12 9 0 -6 -9 -4 -12 5 -9 8 3 14 10 14 16 0 5 4 14 9 19 5 5 6
3 2 -4 -10 -18 -4 -16 49 9 25 12 45 27 45 32 0 6 28 20 63 30 54 17 96 20
337 21 l275 2 -235 -7 -235 -6 241 -2 c207 -2 243 0 248 13 3 8 8 15 10 15 3
0 -3 -19 -14 -42z m1477 -25 c-2 -5 6 -39 18 -78 l23 -70 1 71 c1 76 5 83 51
80 l25 -1 -1 -147 c-1 -82 2 -148 7 -148 5 0 5 -10 0 -22 -4 -13 -6 -40 -3
-60 4 -34 2 -38 -19 -39 -13 -1 -31 -2 -39 -3 -8 -1 -24 4 -35 11 -25 16 -36
16 -29 0 3 -9 -6 -12 -36 -9 l-40 4 0 49 c0 27 -4 49 -8 49 -18 0 -32 -26 -32
-62 0 -38 0 -38 -41 -38 -34 0 -40 3 -35 17 4 9 1 20 -6 25 -11 6 -11 8 0 8
10 0 12 37 12 168 -1 92 -1 173 -1 180 1 7 15 12 36 12 l35 0 0 -162 c0 -160
0 -161 20 -143 18 16 20 31 20 161 l0 143 38 4 c20 2 38 4 40 5 2 1 1 -1 -1
-5z m-1194 -67 c12 -35 22 -53 27 -46 5 8 9 8 13 -4 3 -8 1 -16 -6 -19 -9 -3
-9 -10 -1 -28 11 -24 11 -24 19 11 4 19 11 40 15 45 4 6 13 31 21 58 13 45 15
47 51 47 l38 0 1 -127 c1 -80 4 -119 9 -103 4 14 8 20 9 13 1 -6 4 -18 7 -27
4 -11 1 -16 -10 -16 -13 0 -16 -13 -16 -78 l0 -79 -36 2 -36 2 -2 81 c-1 82
-8 97 -20 41 -5 -29 -8 -30 -38 -24 -42 9 -48 13 -48 31 0 8 -5 14 -11 14 -8
0 -10 -17 -6 -56 7 -73 2 -84 -39 -84 l-34 0 0 206 0 205 37 -3 c35 -3 37 -5
56 -62z m871 48 c18 -46 9 -54 -57 -54 l-64 0 -1 -51 -1 -51 55 4 c42 2 53 0
49 -10 -3 -8 -5 -25 -5 -38 0 -17 -6 -24 -19 -24 -11 0 -29 -12 -40 -27 -11
-16 -21 -23 -21 -16 0 6 5 15 10 18 15 9 12 25 -4 25 -22 0 -28 -17 -21 -60
l7 -39 56 -3 c56 -3 57 -3 60 -35 2 -22 -1 -33 -10 -34 -25 -1 -83 -1 -135 0
l-53 1 0 205 0 205 94 0 c76 0 95 -3 100 -16z"/>
</g>
</svg>
