<?xml version="1.0" standalone="no"?>
<!DOCTYPE svg PUBLIC "-//W3C//DTD SVG 20010904//EN"
 "http://www.w3.org/TR/2001/REC-SVG-20010904/DTD/svg10.dtd">
<svg version="1.0" xmlns="http://www.w3.org/2000/svg"
 width="512.000000pt" height="512.000000pt" viewBox="0 0 512.000000 512.000000"
 preserveAspectRatio="xMidYMid meet">
<metadata>
Created by potrace 1.16, written by Peter Selinger 2001-2019
</metadata>
<g transform="translate(0.000000,512.000000) scale(0.100000,-0.100000)"
fill="#000000" stroke="none">
<path d="M203 4958 c-174 -172 -196 -198 -191 -231 3 -19 32 5 192 163 103
102 192 193 197 203 8 14 5 17 -17 17 -21 0 -60 -33 -181 -152z"/>
<path d="M303 4858 c-140 -139 -264 -265 -275 -281 -10 -15 -18 -37 -16 -50 3
-18 49 23 292 263 158 157 292 293 297 303 8 14 5 17 -17 17 -22 0 -75 -47
-281 -252z"/>
<path d="M402 4758 c-194 -194 -362 -365 -373 -381 -11 -15 -19 -37 -17 -50 4
-18 67 40 392 363 213 212 392 393 397 403 8 14 5 17 -18 17 -22 0 -89 -62
-381 -352z"/>
<path d="M502 4658 c-249 -249 -462 -465 -473 -481 -11 -15 -19 -37 -17 -50 4
-18 84 57 492 463 268 267 492 493 497 503 8 14 5 17 -18 17 -22 0 -104 -76
-481 -452z"/>
<path d="M866 4822 c-250 -248 -303 -296 -373 -336 -136 -78 -218 -165 -238
-251 -4 -20 -48 -72 -126 -152 -90 -92 -119 -127 -119 -147 0 -14 3 -26 7 -26
3 0 59 52 123 116 l118 115 7 -56 7 -57 -131 -133 c-101 -103 -131 -139 -131
-159 0 -38 15 -27 154 113 l120 120 23 -41 24 -41 -161 -162 c-126 -128 -160
-168 -160 -189 0 -22 3 -25 18 -17 9 5 89 82 176 170 l160 160 37 -27 38 -27
-215 -216 c-171 -172 -214 -221 -214 -242 0 -15 3 -27 7 -27 4 0 109 102 235
227 l227 226 41 -18 c22 -10 40 -21 40 -24 0 -3 -124 -129 -275 -281 -224
-226 -275 -281 -275 -304 0 -22 3 -25 18 -17 9 5 132 125 272 266 l255 255 5
-57 5 -58 -277 -281 c-225 -227 -278 -286 -278 -307 0 -15 3 -27 7 -27 4 0
131 124 283 275 l276 276 26 -38 25 -38 -309 -311 c-252 -254 -308 -315 -308
-338 0 -22 3 -25 17 -17 10 5 157 149 327 319 l309 310 44 -21 43 -21 -370
-371 c-303 -304 -370 -376 -370 -398 0 -15 3 -27 7 -27 4 0 181 174 394 386
l387 386 47 -17 46 -18 -440 -442 c-364 -363 -441 -446 -441 -468 0 -15 3 -27
7 -27 4 0 213 205 464 457 l457 456 46 -13 c25 -7 46 -15 46 -19 0 -3 -229
-235 -510 -516 -422 -423 -510 -515 -510 -538 0 -15 3 -27 7 -27 4 0 248 240
543 534 l535 534 49 -15 49 -15 -591 -592 c-495 -495 -592 -596 -592 -619 0
-23 3 -26 18 -18 9 5 289 282 620 614 l604 604 46 -10 c26 -6 49 -12 51 -14 3
-2 -297 -306 -667 -676 -564 -564 -672 -677 -672 -700 0 -23 3 -26 17 -18 10
5 326 318 703 696 l685 685 45 -6 c25 -4 49 -9 54 -12 4 -2 -332 -345 -748
-761 -631 -631 -756 -761 -756 -784 0 -15 3 -27 7 -27 4 0 359 352 789 781
l782 782 57 -8 58 -7 -847 -847 c-707 -708 -846 -851 -846 -874 0 -15 3 -27 7
-27 4 0 400 392 879 871 l871 871 58 -7 57 -8 -936 -936 c-789 -790 -936 -941
-936 -964 0 -23 3 -26 18 -18 9 5 444 438 967 960 l950 951 65 0 65 0 -1033
-1033 c-871 -872 -1032 -1037 -1032 -1060 0 -23 3 -26 18 -18 9 5 487 480
1062 1055 l1045 1046 65 0 64 0 -44 -45 c-32 -33 -52 -45 -73 -45 -24 0 -28
-3 -25 -25 3 -21 -152 -179 -1054 -1083 -887 -887 -1058 -1062 -1058 -1085 0
-15 3 -27 7 -27 4 0 487 480 1074 1066 l1065 1065 34 -31 33 -31 -1106 -1107
c-929 -929 -1107 -1112 -1107 -1135 0 -15 3 -27 7 -27 4 0 504 496 1110 1102
607 607 1103 1096 1103 1088 0 -8 -5 -42 -10 -75 l-10 -59 -1100 -1101 c-923
-923 -1100 -1105 -1100 -1128 0 -15 3 -27 7 -27 4 0 495 487 1090 1082 596
596 1083 1078 1083 1071 0 -6 -7 -42 -16 -80 l-15 -68 -1075 -1075 c-901 -902
-1074 -1080 -1074 -1103 0 -15 3 -27 7 -27 4 0 483 475 1064 1056 l1057 1057
-5 -69 -5 -69 -1026 -1027 c-564 -564 -1029 -1033 -1034 -1042 -7 -13 -4 -16
19 -16 23 0 120 93 603 575 l576 576 17 -36 c9 -19 22 -35 29 -35 7 0 -227
-240 -520 -533 -292 -293 -532 -536 -532 -540 0 -4 12 -7 27 -7 23 0 118 90
553 524 l525 525 52 -12 53 -12 -496 -495 c-272 -272 -500 -503 -505 -512 -8
-15 -5 -18 18 -18 23 0 113 85 543 514 l515 513 56 12 c30 6 73 21 95 32 26
14 -143 -161 -498 -518 -296 -296 -538 -542 -538 -546 0 -4 12 -7 27 -7 23 0
129 101 626 597 329 329 596 591 593 583 -2 -8 -10 -44 -16 -80 l-13 -65 -201
-203 c-110 -111 -207 -202 -214 -202 -47 0 -132 -85 -132 -131 0 -8 -102 -115
-226 -239 -124 -124 -230 -233 -235 -242 -8 -15 -5 -18 17 -18 22 0 68 41 235
206 l207 206 31 -33 30 -34 -165 -166 c-90 -91 -164 -168 -164 -172 0 -4 12
-7 26 -7 21 0 62 35 190 161 l163 162 39 -16 39 -16 6 61 c5 59 8 64 65 121
58 58 63 60 119 65 53 4 62 8 107 51 68 64 161 191 206 281 21 41 53 89 70
105 l33 30 -7 -30 c-4 -16 -23 -64 -42 -106 -32 -68 -53 -93 -187 -226 -148
-147 -153 -151 -201 -156 -64 -6 -92 -35 -106 -107 -10 -53 -15 -60 -165 -210
-85 -86 -155 -159 -155 -163 0 -4 12 -7 26 -7 20 0 58 32 165 137 l139 137 65
0 64 1 -129 -131 c-72 -72 -130 -134 -130 -137 0 -4 12 -7 26 -7 20 0 65 38
198 168 95 92 194 185 222 206 27 22 69 65 94 95 25 30 138 150 252 265 l207
211 62 -3 62 -4 -462 -462 c-253 -254 -461 -465 -461 -469 0 -4 12 -7 27 -7
22 0 110 83 503 475 272 271 483 475 493 475 10 0 38 5 63 11 l44 11 0 52 c0
43 5 57 25 76 l25 23 0 -64 0 -64 -481 -480 c-264 -264 -485 -488 -490 -498
-8 -14 -5 -17 18 -17 23 0 107 80 504 476 l476 476 31 -16 c17 -9 34 -21 38
-27 4 -7 -174 -192 -435 -453 -242 -243 -441 -445 -441 -449 0 -4 12 -7 27 -7
22 0 103 76 460 432 l433 433 25 -30 c13 -17 24 -35 25 -40 0 -6 -169 -179
-376 -385 -206 -206 -380 -383 -385 -392 -8 -15 -5 -18 18 -18 22 0 92 65 403
376 l377 375 28 -36 28 -37 -332 -332 c-182 -182 -331 -335 -331 -339 0 -4 12
-7 27 -7 22 0 86 59 349 321 l322 321 27 -37 28 -36 -276 -278 c-153 -152
-277 -280 -277 -284 0 -4 12 -7 27 -7 21 0 78 51 294 266 l267 266 37 -27 36
-28 -230 -232 c-127 -127 -231 -234 -231 -238 0 -4 12 -7 27 -7 21 0 71 44
249 221 l222 221 34 -23 c18 -12 35 -24 37 -26 3 -2 -79 -88 -182 -191 -103
-104 -187 -191 -187 -195 0 -4 12 -7 26 -7 21 0 65 38 210 181 l182 181 47
-17 46 -18 -155 -157 c-86 -86 -156 -159 -156 -163 0 -4 12 -7 26 -7 21 0 61
34 183 155 l157 155 64 0 64 0 -147 -148 c-81 -82 -147 -152 -147 -155 0 -4
12 -7 26 -7 21 0 63 36 193 165 92 91 170 165 174 165 4 0 31 16 61 35 60 38
86 68 86 99 0 13 196 216 560 581 464 464 560 566 560 588 0 15 -3 27 -7 27
-4 0 -256 -248 -560 -552 -304 -304 -554 -550 -556 -548 -2 3 -14 20 -27 38
l-23 34 587 587 c487 487 586 591 586 614 0 15 -3 27 -7 27 -4 0 -281 -273
-614 -606 -410 -410 -612 -605 -622 -601 -8 3 -32 2 -53 -3 -21 -5 -42 -6 -47
-3 -5 3 295 310 667 682 563 564 676 681 676 704 0 15 -3 27 -7 27 -4 0 -317
-309 -694 -686 l-687 -687 -37 28 -36 28 730 731 c614 615 731 736 731 759 0
23 -3 26 -17 18 -10 -5 -346 -338 -748 -740 l-730 -731 -32 32 -33 32 780 781
c651 652 780 785 780 808 0 15 -3 27 -7 27 -4 0 -362 -354 -796 -787 l-788
-788 -30 35 -29 34 66 67 c49 49 78 70 110 79 57 16 94 53 94 94 0 27 74 105
690 721 579 580 690 695 690 718 0 23 -3 26 -17 18 -10 -5 -324 -316 -697
-690 l-680 -680 -27 20 c-15 10 -35 19 -45 19 -12 0 268 287 724 743 619 619
742 747 742 770 0 15 -3 27 -7 27 -4 0 -359 -351 -788 -780 -818 -817 -833
-831 -900 -814 -14 3 -25 9 -25 12 0 4 387 394 860 867 719 720 860 865 860
888 0 15 -3 27 -7 27 -4 0 -409 -401 -899 -891 l-891 -891 -18 47 -18 47 917
917 c772 773 916 921 916 944 0 23 -3 26 -17 18 -10 -5 -430 -422 -933 -925
l-915 -916 -32 32 -33 32 965 966 c808 809 965 970 965 993 0 15 -3 27 -7 27
-4 0 -429 -421 -943 -935 l-936 -936 -13 52 -13 51 956 957 c801 801 956 961
956 984 0 15 -3 27 -7 27 -4 0 -441 -433 -970 -962 l-961 -961 -35 29 -35 29
1004 1005 c841 842 1004 1010 1004 1033 0 15 -3 27 -7 27 -4 0 -467 -459
-1028 -1020 l-1020 -1019 -58 6 -59 6 1086 1086 c911 911 1086 1091 1086 1114
0 15 -3 27 -7 27 -4 0 -131 -124 -283 -275 l-275 -275 3 68 4 67 279 281 c226
227 279 286 279 307 0 15 -3 27 -7 27 -3 0 -67 -60 -141 -132 -74 -73 -131
-124 -127 -113 4 11 10 45 13 75 l4 55 129 131 c99 102 129 138 129 158 0 38
-16 27 -140 -98 -57 -58 -108 -106 -112 -106 -5 0 -8 8 -8 18 -1 9 -7 28 -15
42 -13 24 -10 28 131 171 111 114 144 153 144 173 0 14 -3 26 -7 26 -3 0 -76
-68 -160 -152 l-153 -152 -32 32 -32 32 192 193 c152 154 192 200 192 221 0
14 -3 26 -7 26 -4 0 -100 -93 -214 -206 l-207 -206 -40 23 -41 24 254 256
c206 206 255 261 255 282 0 15 -3 27 -7 27 -4 0 -129 -121 -278 -270 l-270
-269 -44 20 -45 20 267 267 c147 147 267 271 267 275 0 4 -12 7 -27 7 -21 0
-77 -51 -293 -265 l-266 -265 -46 18 -47 18 230 229 c127 127 235 238 240 248
8 14 5 17 -17 17 -22 0 -73 -45 -268 -239 l-241 -239 -49 15 -49 14 217 218
c119 119 216 220 216 224 0 4 -12 7 -27 7 -21 0 -70 -44 -244 -216 l-217 -216
-52 12 -52 12 196 197 c108 109 196 200 196 204 0 4 -12 7 -26 7 -21 0 -68
-40 -225 -196 l-197 -196 -51 7 c-28 4 -51 10 -51 14 0 3 75 80 166 171 91 91
170 173 175 183 8 14 5 17 -17 17 -21 0 -64 -37 -209 -181 l-182 -180 -52 7
c-28 4 -51 9 -51 13 0 3 68 74 151 156 83 83 155 158 160 168 8 14 5 17 -17
17 -21 0 -62 -35 -193 -165 -175 -173 -176 -173 -250 -159 l-32 7 150 152 c83
83 151 155 151 158 0 4 -12 7 -26 7 -21 0 -61 -34 -184 -156 l-158 -156 -57 7
-57 8 141 142 c78 78 141 145 141 148 0 4 -12 7 -26 7 -20 0 -60 -33 -173
-145 -145 -143 -148 -145 -192 -145 -24 0 -50 4 -56 8 -9 5 26 46 108 127 140
140 151 155 113 155 -20 0 -58 -31 -169 -140 l-142 -141 -57 7 -57 7 125 127
c69 70 126 130 126 133 0 4 -12 7 -26 7 -20 0 -58 -31 -163 -135 -131 -128
-139 -135 -177 -134 -84 1 -82 6 37 124 130 129 141 145 103 145 -20 0 -56
-30 -158 -130 l-132 -130 -64 0 -64 0 122 123 c67 68 122 127 122 130 0 4 -12
7 -26 7 -20 0 -57 -31 -158 -130 l-132 -130 -64 0 -64 0 122 123 c67 68 122
127 122 130 0 4 -12 7 -26 7 -20 0 -58 -31 -163 -135 l-137 -135 -64 0 -64 0
127 128 c70 71 127 132 127 135 0 4 -12 7 -26 7 -20 0 -59 -32 -168 -139
l-141 -139 -67 -4 -67 -3 134 136 c74 74 135 139 135 142 0 4 -12 7 -26 7 -20
0 -60 -33 -174 -145 l-147 -146 -72 -8 -71 -7 145 146 c80 81 145 150 145 153
0 4 -12 7 -26 7 -21 0 -62 -35 -186 -157 l-159 -158 -75 -11 -75 -10 161 161
c88 89 160 164 160 168 0 4 -12 7 -26 7 -21 0 -64 -37 -203 -174 l-176 -174
-78 -15 -78 -14 180 182 c100 99 181 184 181 188 0 4 -12 7 -26 7 -22 0 -69
-41 -228 -198 -195 -193 -203 -199 -256 -211 -30 -6 -66 -14 -80 -18 -17 -4
40 60 183 204 114 115 207 212 207 216 0 4 -12 7 -27 7 -21 0 -72 -46 -258
-231 l-233 -231 -96 -32 -97 -32 256 256 c140 141 255 259 255 263 0 4 -12 7
-27 7 -21 0 -82 -55 -317 -288z m3674 -1128 c-105 -105 -114 -111 -232 -155
l-83 -30 77 78 c64 64 91 84 156 111 42 18 97 46 122 62 25 16 47 29 50 29 2
1 -38 -42 -90 -95z m-344 -143 c-65 -65 -71 -69 -143 -85 -42 -9 -77 -15 -79
-13 -2 2 22 29 54 60 50 49 67 60 137 81 44 13 84 24 90 25 5 0 -21 -30 -59
-68z m-651 -1050 l-770 -769 -55 -11 c-30 -7 -66 -14 -80 -18 -47 -11 38 65
122 108 92 49 158 115 198 202 27 56 87 120 590 622 l560 560 92 36 c51 20 98
37 103 38 6 0 -336 -345 -760 -768z m-40 159 c-322 -322 -512 -505 -516 -497
-4 6 -10 30 -13 52 l-7 40 435 435 436 435 77 21 c43 12 82 22 88 23 5 0 -219
-228 -500 -509z m-145 55 c-217 -217 -398 -395 -401 -395 -4 0 -11 22 -16 49
l-10 49 333 333 332 332 69 12 c37 7 72 13 78 14 5 0 -168 -177 -385 -394z
m-140 60 c-204 -204 -297 -291 -302 -281 -4 7 -10 30 -13 52 l-6 39 234 234
235 233 58 8 c33 4 66 8 74 9 8 0 -118 -132 -280 -294z m-130 70 c-107 -107
-198 -195 -202 -195 -5 0 -8 26 -8 57 l0 56 132 133 c135 137 139 140 228 143
l45 1 -195 -195z m-942 -941 c-32 -34 -51 -44 -97 -53 -116 -23 -179 -84 -303
-295 -76 -129 -196 -266 -232 -266 -11 0 -35 5 -53 12 l-34 12 358 358 358
358 22 -43 21 -42 -40 -41z m110 -30 l34 -27 -113 -113 c-62 -62 -114 -112
-116 -110 -2 1 4 26 12 54 10 34 32 69 65 106 32 34 46 56 38 59 -9 3 -6 12
11 31 14 14 27 26 29 26 3 0 21 -12 40 -26z m771 -254 c1 -28 -7 -43 -41 -77
-23 -24 -48 -43 -55 -43 -7 0 -13 -6 -13 -13 0 -23 -34 -47 -50 -37 -25 16
-30 12 -30 -23 0 -23 -8 -41 -25 -57 l-25 -23 0 64 c0 59 3 68 29 93 20 19 48
32 88 40 l58 12 3 49 c2 34 10 57 25 73 l22 24 6 -24 c4 -13 7 -39 8 -58z
m-860 -50 c10 0 21 -3 24 -7 10 -9 -23 -43 -42 -43 -30 -1 -98 -38 -141 -77
-41 -36 -90 -120 -90 -153 0 -9 -30 -45 -67 -80 -37 -36 -60 -56 -51 -45 18
23 59 112 78 170 9 29 46 74 139 168 123 124 126 127 129 97 2 -21 9 -30 21
-30z"/>
<path d="M4396 750 c-394 -393 -722 -723 -727 -732 -8 -15 -5 -18 18 -18 23 0
137 110 711 683 376 375 692 694 703 710 11 15 19 37 17 50 -4 18 -124 -97
-722 -693z"/>
<path d="M4496 650 c-339 -338 -622 -623 -627 -632 -8 -15 -5 -18 18 -18 23 0
123 95 611 583 321 320 592 594 603 610 11 15 19 37 17 50 -4 18 -106 -80
-622 -593z"/>
<path d="M4596 550 c-284 -283 -522 -523 -527 -533 -8 -14 -5 -17 18 -17 23 0
108 81 511 483 266 265 492 494 503 510 11 15 19 37 17 50 -4 18 -89 -62 -522
-493z"/>
<path d="M4696 450 c-229 -228 -422 -423 -427 -432 -8 -15 -5 -18 18 -18 22 0
93 66 411 383 211 210 392 394 403 410 11 15 19 37 17 50 -4 18 -72 -45 -422
-393z"/>
<path d="M4796 350 c-174 -173 -322 -323 -327 -332 -8 -15 -5 -18 17 -18 23 0
80 52 312 282 156 156 293 295 303 311 11 15 19 37 17 50 -4 18 -54 -28 -322
-293z"/>
<path d="M4896 250 c-119 -118 -222 -223 -227 -232 -8 -15 -5 -18 17 -18 21 0
65 37 211 183 205 202 226 227 221 260 -3 19 -37 -11 -222 -193z"/>
<path d="M4996 150 c-136 -133 -149 -150 -111 -150 18 0 49 23 111 82 102 98
127 130 122 161 -3 19 -19 7 -122 -93z"/>
</g>
</svg>
